<svg xmlns="http://www.w3.org/2000/svg" width="100%" viewBox="0 0 158 28" fill="none" class="u-svg"><path d="M1.55996 17.7175L5.29281 21.4419L1.55996 25.1658C-0.501757 23.1092 -0.501757 19.7746 1.55996 17.7175Z" fill="#39E5E5"></path><path d="M5.29242 21.4419L9.02526 25.1659L6.81544 27.3707C5.97441 28.2098 4.60998 28.2098 3.76939 27.3707L1.55957 25.1659L5.29242 21.4419Z" fill="#00CCCC"></path><path d="M5.29242 13.9932L9.02526 17.7176L5.29242 21.442L1.55957 17.7176L5.29242 13.9932Z" fill="#00CCCC"></path><path d="M9.02582 17.7175C11.0871 19.7746 11.0871 23.1092 9.02582 25.1658L5.29297 21.4419L9.02582 17.7175Z" fill="#00B5B0"></path><path d="M9.01214 10.2825L12.745 14.0068L9.01214 17.7308L5.2793 14.0068L9.01214 10.2825Z" fill="#FF7708"></path><path d="M12.7446 6.55815L16.477 10.2825L12.7446 14.0069L9.01172 10.2825L12.7446 6.55815Z" fill="#FF583A"></path><path d="M16.4775 10.2825C18.5392 12.3395 18.5392 15.6742 16.4775 17.7308L12.7451 14.0068L16.4775 10.2825Z" fill="#FF422E"></path><path d="M1.54629 2.83397L5.27913 6.55791L1.54629 10.2823C-0.515429 8.22568 -0.515429 4.89057 1.54629 2.83397Z" fill="#FFA700"></path><path d="M5.27875 6.55815L9.01159 10.2825L5.27875 14.0069L1.5459 10.2825L5.27875 6.55815Z" fill="#FF9400"></path><path d="M6.80274 0.629339L9.01257 2.83415L5.27972 6.55809L1.54688 2.83415L3.75626 0.629339C4.59773 -0.20978 5.96128 -0.20978 6.80274 0.629339Z" fill="#FF9400"></path><path d="M9.01214 2.83397L12.745 6.55791L9.01214 10.2823L5.2793 6.55791L9.01214 2.83397Z" fill="#FF7708"></path><path d="M9.02526 17.7175C11.0865 19.7746 11.0865 23.1092 9.02526 25.1658L12.7446 21.4554L16.477 17.731L12.7446 14.0066L9.01172 17.731" fill="#FF583A"></path><g id="" class="logo-group"><path d="M27.5721 7.7843V12.2175H31.2914C32.0302 12.2175 32.5842 12.1277 32.9538 11.9489C33.6069 11.6351 33.9342 11.0161 33.9342 10.0907C33.9342 9.09027 33.6179 8.41854 32.9857 8.07505C32.6305 7.8815 32.0975 7.7843 31.3871 7.7843H27.5721ZM34.7154 5.34366C35.3239 5.6052 35.8404 5.98924 36.2633 6.49663C36.6132 6.91467 36.8907 7.3776 37.0947 7.88499C37.2992 8.39282 37.4014 8.97083 37.4014 9.62033C37.4014 10.4037 37.203 11.1743 36.8068 11.9319C36.4101 12.6895 35.7552 13.2248 34.8434 13.5383C35.6062 13.8443 36.1462 14.2793 36.4647 14.8425C36.7823 15.4061 36.9409 16.2661 36.9409 17.423V18.5311C36.9409 19.2852 36.9715 19.7965 37.0322 20.0651C37.1235 20.4905 37.3363 20.8039 37.6705 21.0053V21.4194H33.8555C33.7511 21.0537 33.6764 20.759 33.631 20.535C33.5414 20.0725 33.4929 19.5986 33.4851 19.1135L33.4628 17.5795C33.4488 16.5273 33.2666 15.8259 32.9162 15.475C32.5663 15.1245 31.9096 14.9488 30.9476 14.9488H27.5721V21.4194H24.1953V4.91822H32.1058C33.236 4.94089 34.1059 5.08255 34.7154 5.34366Z" fill="#f1f4f9"></path><path d="M42.4904 12.2206C42.0386 12.6853 41.7546 13.3147 41.6389 14.1094H47.1477C47.0896 13.2624 46.8056 12.6199 46.2957 12.1814C45.7863 11.7424 45.1541 11.5232 44.3992 11.5232C43.5782 11.5232 42.9421 11.7559 42.4904 12.2206ZM47.2744 9.46439C48.1272 9.84581 48.8324 10.4474 49.3877 11.2695C49.8888 11.9944 50.2138 12.8353 50.3624 13.7921C50.4484 14.3531 50.4834 15.1599 50.4677 16.214H41.5602C41.6096 17.438 42.036 18.2963 42.839 18.7888C43.3275 19.0949 43.9151 19.2479 44.6023 19.2479C45.3306 19.2479 45.9222 19.0613 46.3774 18.6882C46.626 18.4868 46.8458 18.2065 47.0358 17.8486H50.3008C50.2147 18.5722 49.8193 19.3076 49.115 20.0538C48.0197 21.2404 46.4862 21.8336 44.5141 21.8336C42.8862 21.8336 41.4501 21.3332 40.2058 20.3324C38.962 19.3316 38.3398 17.703 38.3398 15.4472C38.3398 13.3335 38.9013 11.7124 40.0245 10.5847C41.1478 9.45655 42.6057 8.89248 44.3979 8.89248C45.4626 8.89248 46.4211 9.08341 47.2744 9.46439Z" fill="#f1f4f9"></path><path d="M58.4701 9.2172H61.9032L57.487 21.4195H54.1151L49.7295 9.2172H53.3199L55.867 18.2178L58.4701 9.2172Z" fill="#f1f4f9"></path><path d="M65.7521 12.2206C65.3003 12.6853 65.0163 13.3147 64.9006 14.1094H70.4094C70.3513 13.2624 70.0673 12.6199 69.5575 12.1814C69.048 11.7424 68.4158 11.5232 67.6609 11.5232C66.84 11.5232 66.2038 11.7559 65.7521 12.2206ZM70.5361 9.46439C71.3889 9.84581 72.0941 10.4474 72.6494 11.2695C73.1505 11.9944 73.4755 12.8353 73.6241 13.7921C73.7102 14.3531 73.7451 15.1599 73.7294 16.214H64.8219C64.8713 17.438 65.2977 18.2963 66.1007 18.7888C66.5892 19.0949 67.1768 19.2479 67.864 19.2479C68.5923 19.2479 69.1839 19.0613 69.6392 18.6882C69.8877 18.4868 70.1075 18.2065 70.2976 17.8486H73.5625C73.4764 18.5722 73.081 19.3076 72.3767 20.0538C71.2814 21.2404 69.7479 21.8336 67.7758 21.8336C66.1479 21.8336 64.7118 21.3332 63.4675 20.3324C62.2237 19.3316 61.6016 17.703 61.6016 15.4472C61.6016 13.3335 62.163 11.7124 63.2862 10.5847C64.4095 9.45655 65.8674 8.89248 67.6596 8.89248C68.7243 8.89248 69.6828 9.08341 70.5361 9.46439Z" fill="#f1f4f9"></path><path d="M84.0591 9.9168C84.8599 10.5772 85.2605 11.6726 85.2605 13.2027V21.4195H81.9843V13.9973C81.9843 13.3557 81.8986 12.8631 81.7278 12.5196C81.4159 11.8928 80.8221 11.5793 79.9457 11.5793C78.8692 11.5793 78.1304 12.0384 77.7293 12.9564C77.5214 13.4415 77.4174 14.061 77.4174 14.8146V21.4195H74.2197V9.2394H77.3165V11.0196C77.7258 10.3928 78.1138 9.94121 78.4786 9.66485C79.1339 9.17227 79.9645 8.92642 80.9702 8.92642C82.2289 8.92642 83.2583 9.2564 84.0591 9.9168Z" fill="#f1f4f9"></path><path d="M90.2714 9.21722V16.5723C90.2714 17.2662 90.3531 17.7889 90.5169 18.1393C90.8075 18.7592 91.3768 19.0687 92.2252 19.0687C93.3118 19.0687 94.0562 18.6284 94.4582 17.7475C94.6666 17.2701 94.771 16.6394 94.771 15.8556V9.21722H98.0137V21.4195H94.9051V19.6955C94.8759 19.733 94.8012 19.845 94.6819 20.0316C94.5622 20.2182 94.4206 20.3825 94.2568 20.5237C93.757 20.9718 93.2738 21.2779 92.808 21.4418C92.3414 21.6061 91.7949 21.688 91.1688 21.688C89.3635 21.688 88.1477 21.039 87.5211 19.7404C87.1703 19.0238 86.9951 17.968 86.9951 16.5723V9.21722H90.2714Z" fill="#f1f4f9"></path><path d="M103.158 12.2206C102.707 12.6853 102.423 13.3147 102.307 14.1094H107.816C107.758 13.2624 107.474 12.6199 106.964 12.1814C106.454 11.7424 105.822 11.5232 105.067 11.5232C104.246 11.5232 103.61 11.7559 103.158 12.2206ZM107.942 9.46439C108.795 9.84581 109.5 10.4474 110.056 11.2695C110.557 11.9944 110.882 12.8353 111.03 13.7921C111.116 14.3531 111.151 15.1599 111.136 16.214H102.228C102.278 17.438 102.704 18.2963 103.507 18.7888C103.995 19.0949 104.583 19.2479 105.27 19.2479C105.999 19.2479 106.59 19.0613 107.045 18.6882C107.294 18.4868 107.514 18.2065 107.704 17.8486H110.969C110.883 18.5722 110.487 19.3076 109.783 20.0538C108.688 21.2404 107.154 21.8336 105.182 21.8336C103.554 21.8336 102.118 21.3332 100.874 20.3324C99.63 19.3316 99.0078 17.703 99.0078 15.4472C99.0078 13.3335 99.5692 11.7124 100.692 10.5847C101.816 9.45655 103.274 8.89248 105.066 8.89248C106.131 8.89248 107.089 9.08341 107.942 9.46439Z" fill="#f1f4f9"></path><path d="M113.535 20.0897H117.51C118.368 20.0897 119.115 20.0518 119.751 19.975C120.386 19.8988 120.912 19.7423 121.325 19.5051C121.738 19.2684 122.049 18.9319 122.255 18.4965C122.463 18.0606 122.566 17.4838 122.566 16.7655C122.566 16.0776 122.451 15.5236 122.221 15.1034C121.991 14.6832 121.662 14.358 121.233 14.1287C120.804 13.8994 120.291 13.7429 119.693 13.6588C119.096 13.5751 118.43 13.5328 117.694 13.5328H113.535V20.0897ZM113.535 12.2029H117.488C118.299 12.2029 118.981 12.1344 119.533 11.9967C120.084 11.8589 120.528 11.6567 120.865 11.389C121.202 11.1218 121.444 10.7927 121.589 10.403C121.735 10.0133 121.808 9.56606 121.808 9.06172C121.808 8.54255 121.723 8.10272 121.555 7.74354C121.386 7.38479 121.118 7.09404 120.751 6.87216C120.383 6.65072 119.904 6.49031 119.314 6.39092C118.724 6.29154 118.001 6.24184 117.143 6.24184H113.535V12.2029ZM111.973 21.4196V4.91233H117.947C118.912 4.91233 119.739 5.01172 120.429 5.21006C121.118 5.40883 121.681 5.69173 122.118 6.05833C122.554 6.42536 122.872 6.86475 123.071 7.3765C123.27 7.88913 123.37 8.45058 123.37 9.06172C123.37 9.64278 123.293 10.1436 123.14 10.5634C122.987 10.9841 122.788 11.3354 122.543 11.6183C122.298 11.9012 122.018 12.1226 121.704 12.2831C121.39 12.4435 121.064 12.5546 120.728 12.6157V12.6614C121.877 12.8297 122.73 13.2804 123.29 14.014C123.848 14.7477 124.128 15.6648 124.128 16.7655C124.128 17.6216 123.994 18.3474 123.726 18.9437C123.458 19.5396 123.086 20.0208 122.612 20.3879C122.137 20.7544 121.566 21.0182 120.9 21.179C120.234 21.3394 119.51 21.4196 118.728 21.4196H111.973Z" fill="#f1f4f9"></path><path d="M133.733 15.1835C133.151 15.428 132.561 15.5884 131.964 15.6647C131.366 15.7414 130.769 15.8024 130.172 15.8482C129.114 15.9249 128.291 16.1616 127.701 16.5592C127.111 16.9567 126.816 17.5604 126.816 18.3704C126.816 18.737 126.889 19.0543 127.035 19.3219C127.18 19.5891 127.371 19.811 127.609 19.9867C127.847 20.1624 128.122 20.2927 128.436 20.3764C128.75 20.4605 129.069 20.5024 129.39 20.5024C129.941 20.5024 130.478 20.4335 130.999 20.2962C131.519 20.1589 131.983 19.9488 132.389 19.6659C132.795 19.383 133.12 19.0238 133.365 18.5883C133.61 18.1524 133.733 17.6367 133.733 17.0404V15.1835ZM131.412 14.4956C131.672 14.4651 131.983 14.4193 132.343 14.3578C132.703 14.2973 132.998 14.2127 133.228 14.1059C133.458 13.9991 133.599 13.8195 133.652 13.5671C133.706 13.3147 133.733 13.0819 133.733 12.8679C133.733 12.1648 133.507 11.5877 133.055 11.1369C132.603 10.6862 131.841 10.4604 130.769 10.4604C130.294 10.4604 129.857 10.5027 129.459 10.5868C129.061 10.6705 128.712 10.8157 128.414 11.0223C128.115 11.2285 127.87 11.5035 127.678 11.8475C127.486 12.1914 127.36 12.6234 127.299 13.143H125.897C125.943 12.4403 126.104 11.8401 126.38 11.3431C126.656 10.8466 127.012 10.4417 127.448 10.1278C127.885 9.81484 128.39 9.58555 128.965 9.44039C129.539 9.29524 130.149 9.22244 130.792 9.22244C131.389 9.22244 131.952 9.28783 132.481 9.41729C133.009 9.54719 133.469 9.75338 133.86 10.0363C134.251 10.3192 134.557 10.6975 134.779 11.1709C135.001 11.6452 135.112 12.2258 135.112 12.9137V19.379C135.112 19.9143 135.207 20.2543 135.399 20.3995C135.591 20.5447 135.978 20.5102 136.56 20.2962V21.3737C136.452 21.4043 136.295 21.45 136.089 21.5115C135.882 21.5721 135.678 21.603 135.48 21.603C135.265 21.603 135.058 21.5799 134.859 21.5342C134.629 21.5036 134.446 21.4313 134.307 21.3162C134.17 21.202 134.058 21.0643 133.974 20.9038C133.89 20.743 133.833 20.5678 133.802 20.3764C133.771 20.1855 133.756 19.9832 133.756 19.7687C133.174 20.4108 132.507 20.9004 131.757 21.236C131.006 21.5721 130.194 21.7403 129.321 21.7403C128.8 21.7403 128.299 21.6719 127.816 21.5342C127.334 21.3964 126.908 21.1828 126.541 20.8925C126.173 20.6022 125.882 20.2469 125.668 19.8263C125.453 19.4061 125.346 18.9056 125.346 18.3246C125.346 16.3068 126.732 15.1146 129.505 14.7475L131.412 14.4956Z" fill="#f1f4f9"></path><path d="M138.376 17.7054C138.59 18.7298 138.977 19.4517 139.536 19.8719C140.095 20.2925 140.896 20.5026 141.937 20.5026C142.443 20.5026 142.88 20.4416 143.247 20.3191C143.615 20.1971 143.917 20.0323 144.155 19.8261C144.392 19.6199 144.572 19.3867 144.695 19.1269C144.817 18.8671 144.879 18.5921 144.879 18.3013C144.879 17.7207 144.691 17.2891 144.316 17.0062C143.94 16.7233 143.469 16.5019 142.902 16.3415C142.335 16.1806 141.723 16.0433 141.064 15.9287C140.405 15.814 139.792 15.6419 139.226 15.4126C138.659 15.1833 138.188 14.855 137.812 14.427C137.437 13.9994 137.25 13.3952 137.25 12.6158C137.25 11.6219 137.613 10.8081 138.341 10.1739C139.069 9.54005 140.099 9.22227 141.432 9.22227C142.718 9.22227 143.764 9.5091 144.569 10.0823C145.373 10.6555 145.859 11.6145 146.028 12.9593H144.626C144.503 12.0426 144.155 11.397 143.58 11.0221C143.006 10.6477 142.282 10.4602 141.409 10.4602C140.536 10.4602 139.869 10.6477 139.41 11.0221C138.95 11.397 138.72 11.89 138.72 12.5012C138.72 13.0364 138.908 13.4449 139.283 13.7278C139.659 14.0107 140.13 14.24 140.696 14.4152C141.263 14.5913 141.876 14.7478 142.535 14.8856C143.193 15.0229 143.806 15.2177 144.373 15.4701C144.94 15.7221 145.411 16.0625 145.786 16.4901C146.162 16.9182 146.349 17.5145 146.349 18.2786C146.349 18.844 146.227 19.3449 145.982 19.7803C145.736 20.2158 145.399 20.5789 144.971 20.8692C144.542 21.16 144.032 21.3775 143.443 21.5227C142.853 21.6678 142.205 21.7406 141.501 21.7406C140.796 21.7406 140.171 21.6373 139.628 21.4311C139.084 21.2245 138.621 20.9381 138.238 20.5711C137.855 20.2045 137.556 19.7764 137.342 19.2873C137.127 18.7982 137.004 18.2708 136.974 17.7054H138.376Z" fill="#f1f4f9"></path><path d="M156.529 14.656C156.529 14.0754 156.448 13.5292 156.287 13.017C156.126 12.5048 155.889 12.0619 155.575 11.6871C155.261 11.3126 154.866 11.0144 154.391 10.793C153.917 10.5716 153.373 10.4604 152.76 10.4604C152.147 10.4604 151.607 10.5751 151.14 10.8043C150.673 11.0336 150.275 11.3396 149.945 11.7215C149.616 12.1038 149.351 12.5467 149.152 13.051C148.953 13.5558 148.823 14.0911 148.762 14.656H156.529ZM148.762 15.8024C148.762 16.4445 148.846 17.0522 149.015 17.6254C149.183 18.1982 149.432 18.6951 149.761 19.1153C150.091 19.536 150.508 19.872 151.014 20.124C151.519 20.3764 152.101 20.5024 152.76 20.5024C153.664 20.5024 154.438 20.2657 155.081 19.7918C155.724 19.318 156.153 18.6454 156.368 17.774H157.907C157.739 18.3398 157.517 18.8634 157.241 19.3446C156.965 19.8263 156.621 20.2469 156.207 20.6057C155.793 20.9649 155.303 21.2438 154.736 21.4426C154.17 21.641 153.511 21.7403 152.76 21.7403C151.81 21.7403 150.991 21.5799 150.301 21.2591C149.612 20.9383 149.045 20.4989 148.601 19.9409C148.157 19.383 147.827 18.7256 147.613 17.9693C147.398 17.2126 147.291 16.3988 147.291 15.5274C147.291 14.656 147.418 13.8387 147.67 13.0741C147.923 12.31 148.283 11.6413 148.75 11.0681C149.218 10.4948 149.788 10.0441 150.462 9.71545C151.136 9.38678 151.902 9.22244 152.76 9.22244C154.399 9.22244 155.686 9.78432 156.621 10.9077C157.555 12.031 158.014 13.6626 157.999 15.8024H148.762Z" fill="#f1f4f9"></path></g></svg>
