<?xml version="1.0" encoding="UTF-8"?> <svg xmlns="http://www.w3.org/2000/svg" xmlns:xlink="http://www.w3.org/1999/xlink" width="116px" height="126px" viewBox="0 0 116 126" version="1.1"><title>Group 28</title><defs><linearGradient x1="0%" y1="4.12597656%" x2="100%" y2="100%" id="linearGradient-1"><stop stop-color="#4570FF" offset="0.0846809441%"></stop><stop stop-color="#30D9C1" offset="100%"></stop></linearGradient><rect id="path-2" x="0" y="0" width="96" height="96" rx="20"></rect><filter x="-26.0%" y="-15.6%" width="152.1%" height="162.5%" filterUnits="objectBoundingBox" id="filter-3"><feMorphology radius="5" operator="erode" in="SourceAlpha" result="shadowSpreadOuter1"></feMorphology><feOffset dx="0" dy="20" in="shadowSpreadOuter1" result="shadowOffsetOuter1"></feOffset><feGaussianBlur stdDeviation="10" in="shadowOffsetOuter1" result="shadowBlurOuter1"></feGaussianBlur><feColorMatrix values="0 0 0 0 0 0 0 0 0 0.0802692472 0 0 0 0 0.149116848 0 0 0 0.190696023 0" type="matrix" in="shadowBlurOuter1"></feColorMatrix></filter></defs><g id="Homepage-Design" stroke="none" stroke-width="1" fill="none" fill-rule="evenodd"><g id="Home-(Truncated)" transform="translate(-742.000000, -3733.000000)"><g id="Group-28" transform="translate(752.000000, 3733.000000)"><g id="Rectangle-Copy-28"><use fill="black" fill-opacity="1" filter="url(#filter-3)" xlink:href="#path-2"></use><use fill="url(#linearGradient-1)" fill-rule="evenodd" xlink:href="#path-2"></use></g><g id="" transform="translate(13.096347, 16.499553)" fill="#FFFFFF" fill-rule="nonzero"><path d="M58.365657,0.656697701 C59.5492515,1.4770102 60.1703438,2.89497967 59.9476883,4.31294556 L52.4476883,53.0629456 C52.271907,54.1996657 51.5805015,55.1957595 50.5726883,55.7582581 C49.5648751,56.3207566 48.3578452,56.3910698 47.2914383,55.9457588 L32.4906549,49.793415 L27.7914354,58.5238838 C27.1820608,59.660604 25.8812788,60.234822 24.6273729,59.9184143 C23.373467,59.6020066 22.4945626,58.4770095 22.4945626,57.187947 L22.4945626,45.937947 C22.4945626,45.3168547 22.7055004,44.7074782 23.0922195,44.2152893 L42.4633118,19.3012297 C42.7562806,18.4691941 41.7015931,17.6254463 40.9398743,18.3168518 L19.9633118,37.2895109 L16.2133118,40.676229 C15.1351872,41.6488838 13.6000302,41.9184172 12.252374,41.355915 L2.29143648,37.2074782 C0.97893684,36.6566956 0.0883111244,35.4145109 0.00628023205,33.984822 C-0.0757506603,32.5551331 0.650811482,31.2074768 1.8929997,30.4926359 L54.3929997,0.492635916 C55.6469074,-0.222208549 57.1937802,-0.151895334 58.3773747,0.656697701 L58.365657,0.656697701 Z" id="Path"></path></g></g></g></g></svg> 